<?xml version="1.0" encoding="utf-8"?>
<!-- Generator: Adobe Illustrator 15.0.2, SVG Export Plug-In . SVG Version: 6.00 Build 0)  -->
<!DOCTYPE svg PUBLIC "-//W3C//DTD SVG 1.1//EN" "http://www.w3.org/Graphics/SVG/1.1/DTD/svg11.dtd">
<svg version="1.1" id="Layer_1" xmlns="http://www.w3.org/2000/svg" xmlns:xlink="http://www.w3.org/1999/xlink" x="0px" y="0px"
	 width="500px" height="500px" viewBox="0 0 500 500" enable-background="new 0 0 500 500" xml:space="preserve">
<path fill="#8CBC3F" d="M366.759,227.528c-12.621-59.379-61.569-113.841-119-111.714c-23.761,0.878-39.827,12.479-48.714,24.653
	c-0.425,0.588-0.779,1.184-1.19,1.772c-0.481,0.737-0.999,1.467-1.445,2.211c-3.841,6.343-5.996,12.777-6.902,18.305
	c41.911,19.12,63.942,58.26,68.479,70.796c3.012,8.313,5.379,16.222,7.222,23.755c-6.861-32.84-6.215-60.321,18.991-74.559
	c23.394-13.21,68.741-8.816,84.687,55.735C368.211,234.729,367.496,231.051,366.759,227.528z"/>
<path fill="#F5F5F5" d="M273.265,85.653c-63.703,13.457-85.444,63.489-85.891,80.973c0.538,0.304,1.034,0.658,1.588,0.983
	c0.438-16.815,16.476-50.223,58.797-51.795c57.416-2.141,106.569,52.447,119,111.714c11.707,55.844,10.991,107.576-2.573,164.596
	c-6.35,26.639,22.388,31.882,38.588,20.118c48.841-35.567,68.918-102.458,65.055-167.415
	C461.394,136.181,375.497,64.045,273.265,85.653z"/>
<path fill="#F5F5F5" d="M153.932,244.486c24.881,34.265,35.164,69.549,51.109,130.112c4.074,15.534,25.88,17.058,36.581,5.817
	c8.618-9.042,19.715-23.902,24.889-46.39c5.499-23.874,7.369-56.601-8.525-100.475c-6.3-17.376-46.227-85.968-126.144-81.319
	C74.171,155.585,31.537,195.32,31.707,252.396c0.008,4.896,0.993,15.038,0.993,15.038c-0.759-22.833,8.907-52.98,45.284-59.16
	C98.74,204.737,127.505,208.083,153.932,244.486z"/>
<path fill="#8CBC3F" d="M153.932,244.486c-26.427-36.403-55.191-39.749-75.947-36.213c-36.144,6.145-45.915,35.958-45.284,58.742
	c0.057,1.161,0.127,2.346,0.247,3.515c0.291,2.508,0.666,5.003,1.22,7.512c15.25,69.117,69.789,89.144,90.496,90.845
	c20.707,1.687,16.101-14.089,11.219-20.24c-39.749-50.038-31.926-81.085-17.533-93.098c16.123-12.594,36.306-9.341,48.502,9.071
	C162.975,257.746,158.736,251.105,153.932,244.486z"/>
<path fill="#8CBC3F" d="M366.759,227.528c-12.621-59.379-61.569-113.841-119-111.714c-23.761,0.878-39.827,12.479-48.714,24.653
	c-0.425,0.588-0.779,1.184-1.19,1.772c-0.481,0.737-0.999,1.467-1.445,2.211c-0.312,0.524-0.588,1.02-0.872,1.538
	c6.507-2.552,13.947-4.238,22.358-4.542c30.303-1.128,58.26,13.528,79.761,36.347c24.385-5.053,57.962,7.009,71.229,60.689
	C368.211,234.729,367.496,231.051,366.759,227.528z"/>
<path fill="#8CBC3F" d="M153.932,244.486c-26.427-36.403-55.191-39.749-75.947-36.213c-20.58,3.501-32.592,14.662-39.013,27.822
	c4.45-2.033,9.524-3.614,15.25-4.577c17.979-3.056,41.925-0.942,65.198,23.286c15.938-11.664,35.504-8.185,47.431,9.815
	C162.975,257.746,158.736,251.105,153.932,244.486z"/>
<path opacity="0.7" fill="#DCDDDE" d="M211.221,344.161c4.081,26.908,10.559,30.132,19.927,26.759
	c8.37-3.005,25.796-19.977,28.063-62.525c2.253-42.527-11.317-70.577-15.393-75.119
	C239.736,228.761,255.137,283.066,211.221,344.161z"/>
<path opacity="0.7" fill="#DCDDDE" d="M387.721,327.861c-2.268,39.374-6.336,48.637-9.1,62.235
	c-2.806,13.876,8.739,21.359,27.887,2.473c20.8-20.558,56.247-86.733,44.107-170.136
	C450.027,218.422,441.104,287.587,387.721,327.861z"/>
<path opacity="0.3" fill="#FFFFFF" d="M129.809,163.812c-51.599,3.303-76.245,42.642-68.663,38.595
	c15.279-8.144,29.48-10.185,63.418-3.388c4.083,0.809,7.931,1.056,11.566,0.887C139.276,199.621,155.52,177.56,129.809,163.812z"/>
<path opacity="0.3" fill="#FFFFFF" d="M333.544,94.334c-47.928-9.212-94.7,13.039-86.082,12.175
	c15.917-1.608,34.852-2.388,65.487,13.77c7.066,3.735,13.969,5.379,20.325,5.627C336.229,125.381,349.205,107.813,333.544,94.334z"
	/>
</svg>
